<svg xmlns="http://www.w3.org/2000/svg"><symbol id="search" viewBox="0 0 24 24">
  <path d="m21 21-4.34-4.34" />
  <circle cx="11" cy="11" r="8" />
</symbol><symbol id="book-open" viewBox="0 0 24 24">
  <path d="M12 5v16" />
  <path d="M20.001 19A2 2 0 0022 17V5a2 2 0 00-1.999-2L16 3.002A5 5 0 0012 5a5 5 0 00-4-2H4a2 2 0 00-2 2v12a2 2 0 001.999 2H8a5 5 0 014 2 5 5 0 014-2z" />
</symbol><symbol id="library-big" viewBox="0 0 24 24">
  <rect width="8" height="18" x="3" y="3" rx="1" />
  <path d="M7 3v18" />
  <path d="M20.4 18.9c.2.5-.1 1.1-.6 1.3l-1.9.7c-.5.2-1.1-.1-1.3-.6L11.1 5.1c-.2-.5.1-1.1.6-1.3l1.9-.7c.5-.2 1.1.1 1.3.6Z" />
</symbol><symbol id="sliders-horizontal" viewBox="0 0 24 24">
  <path d="M10 5H3" />
  <path d="M12 19H3" />
  <path d="M14 3v4" />
  <path d="M16 17v4" />
  <path d="M21 12h-9" />
  <path d="M21 19h-5" />
  <path d="M21 5h-7" />
  <path d="M8 10v4" />
  <path d="M8 12H3" />
</symbol><symbol id="calendar-days" viewBox="0 0 24 24">
  <path d="M8 2v3" />
  <path d="M16 2v3" />
  <rect x="3" y="3" width="18" height="18" rx="2" />
  <path d="M3 9h18" />
  <path d="M8 13h.01" />
  <path d="M12 13h.01" />
  <path d="M16 13h.01" />
  <path d="M8 17h.01" />
  <path d="M12 17h.01" />
  <path d="M16 17h.01" />
</symbol><symbol id="users" viewBox="0 0 24 24">
  <path d="M16 21v-2a4 4 0 0 0-4-4H6a4 4 0 0 0-4 4v2" />
  <path d="M16 3.128a4 4 0 0 1 0 7.744" />
  <path d="M22 21v-2a4 4 0 0 0-3-3.87" />
  <circle cx="9" cy="7" r="4" />
</symbol><symbol id="arrow-up-right" viewBox="0 0 24 24">
  <path d="M7 7h10v10" />
  <path d="M7 17 17 7" />
</symbol><symbol id="quote" viewBox="0 0 24 24">
  <path d="M16 3a2 2 0 0 0-2 2v6a2 2 0 0 0 2 2 1 1 0 0 1 1 1v1a2 2 0 0 1-2 2 1 1 0 0 0-1 1v2a1 1 0 0 0 1 1 6 6 0 0 0 6-6V5a2 2 0 0 0-2-2z" />
  <path d="M5 3a2 2 0 0 0-2 2v6a2 2 0 0 0 2 2 1 1 0 0 1 1 1v1a2 2 0 0 1-2 2 1 1 0 0 0-1 1v2a1 1 0 0 0 1 1 6 6 0 0 0 6-6V5a2 2 0 0 0-2-2z" />
</symbol><symbol id="file-text" viewBox="0 0 24 24">
  <path d="M6 22a2 2 0 0 1-2-2V4a2 2 0 0 1 2-2h8a2.4 2.4 0 0 1 1.704.706l3.588 3.588A2.4 2.4 0 0 1 20 8v12a2 2 0 0 1-2 2z" />
  <path d="M14 2v5a1 1 0 0 0 1 1h5" />
  <path d="M10 9H8" />
  <path d="M16 13H8" />
  <path d="M16 17H8" />
</symbol><symbol id="chevron-down" viewBox="0 0 24 24">
  <path d="m6 9 6 6 6-6" />
</symbol><symbol id="chevron-left" viewBox="0 0 24 24">
  <path d="m15 18-6-6 6-6" />
</symbol><symbol id="chevron-right" viewBox="0 0 24 24">
  <path d="m9 18 6-6-6-6" />
</symbol><symbol id="x" viewBox="0 0 24 24">
  <path d="M18 6 6 18" />
  <path d="m6 6 12 12" />
</symbol><symbol id="layout-grid" viewBox="0 0 24 24">
  <rect width="7" height="7" x="3" y="3" rx="1" />
  <rect width="7" height="7" x="14" y="3" rx="1" />
  <rect width="7" height="7" x="14" y="14" rx="1" />
  <rect width="7" height="7" x="3" y="14" rx="1" />
</symbol><symbol id="list" viewBox="0 0 24 24">
  <path d="M3 5h.01" />
  <path d="M3 12h.01" />
  <path d="M3 19h.01" />
  <path d="M8 5h13" />
  <path d="M8 12h13" />
  <path d="M8 19h13" />
</symbol><symbol id="rotate-ccw" viewBox="0 0 24 24">
  <path d="M3 12a9 9 0 1 0 9-9 9.75 9.75 0 0 0-6.74 2.74L3 8" />
  <path d="M3 3v5h5" />
</symbol><symbol id="chart-no-axes-combined" viewBox="0 0 24 24">
  <path d="M12 16v5" />
  <path d="M16 14.639V21" />
  <path d="M20 10.656V21" />
  <path d="m22 3-8.646 8.646a.5.5 0 0 1-.708 0L9.354 8.354a.5.5 0 0 0-.707 0L2 15" />
  <path d="M4 18.463V21" />
  <path d="M8 14.656V21" />
</symbol><symbol id="info" viewBox="0 0 24 24">
  <circle cx="12" cy="12" r="10" />
  <path d="M12 16v-4" />
  <path d="M12 8h.01" />
</symbol><symbol id="arrow-down-up" viewBox="0 0 24 24">
  <path d="m3 16 4 4 4-4" />
  <path d="M7 20V4" />
  <path d="m21 8-4-4-4 4" />
  <path d="M17 4v16" />
</symbol></svg>